<svg fill="#000000" xmlns="http://www.w3.org/2000/svg"  viewBox="0 0 100 100" width="100px" height="100px"><path d="M 20.744141 2 A 1.0001 1.0001 0 0 0 19.777344 3.1953125 L 24.144531 25.039062 L 4.171875 21.564453 A 1.0001 1.0001 0 0 0 3.1914062 23.138672 L 17.246094 42.462891 L 5.5878906 45.792969 A 1.0001 1.0001 0 0 0 5.1542969 47.460938 L 17.371094 59.677734 L 7.1230469 67.365234 A 1.0001 1.0001 0 0 0 7.4492188 69.126953 L 19.279297 72.507812 L 14.292969 81.650391 A 1.0001 1.0001 0 0 0 15.294922 83.123047 L 28.380859 81.486328 C 28.793244 82.511971 29.249491 83.487853 29.761719 84.396484 C 33.664037 91.318729 41.180287 95 48.466797 95 C 55.177711 95 61.781511 91.787006 65.070312 85.101562 L 71.708984 86.822266 A 1.0001 1.0001 0 0 0 72.949219 85.712891 L 72.167969 80.251953 L 83.207031 79.402344 A 1.0001 1.0001 0 0 0 84.023438 77.958984 L 78.902344 67.714844 L 88.197266 63.490234 A 1.0001 1.0001 0 0 0 88.353516 61.757812 L 77.605469 54.316406 L 91.976562 46.707031 A 1.0001 1.0001 0 0 0 91.916016 44.910156 L 76.064453 37.863281 L 84.978516 17.361328 A 1.0001 1.0001 0 0 0 83.837891 15.988281 L 60.744141 21.320312 L 58.990234 2.9042969 A 1.0001 1.0001 0 0 0 57.287109 2.2929688 L 42.972656 16.607422 L 21.3125 2.1679688 A 1.0001 1.0001 0 0 0 20.744141 2 z M 22.210938 5.171875 L 42.544922 18.726562 A 1.0001 1.0001 0 0 0 43.806641 18.601562 L 57.201172 5.2070312 L 58.861328 22.644531 A 1.0001 1.0001 0 0 0 60.082031 23.523438 L 82.353516 18.382812 L 73.833984 37.976562 A 1.0001 1.0001 0 0 0 74.345703 39.289062 L 89.224609 45.900391 L 75.214844 53.318359 A 1.0001 1.0001 0 0 0 75.113281 55.023438 L 85.765625 62.398438 L 77.130859 66.324219 A 1.0001 1.0001 0 0 0 76.650391 67.681641 L 81.570312 77.521484 L 70.951172 78.339844 A 1.0001 1.0001 0 0 0 70.037109 79.478516 L 70.755859 84.509766 L 65.873047 83.242188 C 66.57674 81.332425 67.172797 79.398694 67.673828 77.455078 C 68.234215 75.281208 68.66672 73.095409 69.007812 70.914062 C 72.387476 70.422906 75 67.511144 75 64 C 75 60.841715 72.890917 58.16892 70.003906 57.304688 C 70.00386 57.280622 70.003969 57.256475 70.003906 57.232422 C 70.001638 56.313567 69.986011 55.403635 69.960938 54.503906 C 69.960698 54.495352 69.961179 54.487068 69.960938 54.478516 C 69.935635 53.577847 69.898505 52.686849 69.853516 51.808594 C 69.808073 50.921492 69.753706 50.046489 69.691406 49.185547 C 69.44234 45.743619 69.072497 42.524464 68.683594 39.632812 C 68.043038 34.870708 65.738614 30.835433 62.507812 27.75 C 62.046702 27.30958 61.567023 26.887347 61.070312 26.486328 C 61.069906 26.486 61.068766 26.486656 61.068359 26.486328 C 60.571649 26.085361 60.059264 25.704009 59.53125 25.34375 C 59.530794 25.343439 59.529752 25.344061 59.529297 25.34375 C 59.001282 24.983541 58.459321 24.642412 57.904297 24.324219 C 57.903797 24.323932 57.902844 24.324505 57.902344 24.324219 C 57.34732 24.006074 56.778911 23.708415 56.201172 23.433594 C 56.200631 23.433337 56.199759 23.433851 56.199219 23.433594 C 55.621481 23.158822 55.03366 22.905923 54.4375 22.675781 C 54.436925 22.675559 54.436122 22.676003 54.435547 22.675781 C 53.839389 22.445689 53.235288 22.236888 52.625 22.052734 C 52.624395 22.052552 52.623652 22.052917 52.623047 22.052734 C 52.012764 21.86863 51.397464 21.709123 50.777344 21.572266 C 50.776716 21.572127 50.776018 21.572404 50.775391 21.572266 C 50.155275 21.435459 49.531912 21.320673 48.90625 21.232422 C 48.905607 21.232331 48.90494 21.232512 48.904297 21.232422 C 48.278642 21.144222 47.650348 21.081305 47.023438 21.042969 C 47.022786 21.042929 47.022136 21.043008 47.021484 21.042969 C 42.001055 20.736382 36.952384 22.058281 33.037109 25.404297 C 31.079472 27.077304 29.421733 29.250974 28.193359 31.941406 C 27.732719 32.950318 27.332867 34.032115 27 35.1875 C 26.445222 37.113141 26.076637 39.242659 25.927734 41.582031 C 25.923506 41.615351 25.79696 42.762875 25.648438 44.324219 C 25.599057 44.845135 25.557472 45.261519 25.503906 45.916016 C 25.449702 46.572733 25.40631 47.342954 25.353516 48.119141 C 25.291249 49.036896 25.23082 49.901409 25.179688 50.958984 C 25.155376 51.457257 25.131571 51.928514 25.111328 52.453125 C 25.100942 52.724074 25.093074 52.998043 25.083984 53.275391 C 25.061253 53.963111 25.042531 54.656425 25.029297 55.378906 C 25.02741 55.483125 25.023147 55.578728 25.021484 55.683594 C 25.018628 55.863728 25.021656 56.054488 25.019531 56.236328 C 25.015198 56.592188 25.007381 56.940448 25.005859 57.302734 C 22.11356 58.163364 20 60.838071 20 64 C 20 67.441999 22.509284 70.308718 25.792969 70.882812 C 26.205139 73.925399 26.802843 76.879209 27.683594 79.558594 L 16.982422 80.896484 L 21.634766 72.369141 A 1.0001 1.0001 0 0 0 21.03125 70.927734 L 9.9355469 67.757812 L 19.494141 60.587891 A 1.0001 1.0001 0 0 0 19.601562 59.080078 L 7.7695312 47.248047 L 19.169922 43.992188 A 1.0001 1.0001 0 0 0 19.703125 42.443359 L 6.2617188 23.958984 L 25.240234 27.259766 A 1.0001 1.0001 0 0 0 26.392578 26.078125 L 22.210938 5.171875 z M 26.232422 10.707031 A 0.50005 0.50005 0 0 0 25.767578 11.324219 L 26.400391 14.070312 A 0.50005 0.50005 0 1 0 27.375 13.847656 L 26.742188 11.101562 A 0.50005 0.50005 0 0 0 26.232422 10.707031 z M 27.568359 16.515625 A 0.50005 0.50005 0 0 0 27.103516 17.134766 L 28.703125 24.091797 A 0.50007797 0.50007797 0 0 0 29.677734 23.867188 L 28.078125 16.910156 A 0.50005 0.50005 0 0 0 27.568359 16.515625 z M 45.183594 23.003906 C 45.753001 22.992042 46.326413 23.004011 46.900391 23.039062 C 50.344256 23.249372 53.804115 24.298447 56.853516 26.042969 C 56.854016 26.043255 56.854968 26.042683 56.855469 26.042969 C 57.363201 26.333484 57.858823 26.644229 58.341797 26.972656 C 58.342253 26.972967 58.343294 26.972346 58.34375 26.972656 C 58.826723 27.301132 59.295736 27.648602 59.75 28.013672 C 59.750408 28.014 59.751545 28.013344 59.751953 28.013672 C 60.206216 28.378792 60.644804 28.763666 61.066406 29.164062 C 61.91032 29.965531 62.68568 30.836613 63.375 31.771484 C 65.098299 34.108662 66.288271 36.845271 66.699219 39.900391 C 67.373548 44.911065 67.98103 50.88937 67.994141 57.265625 C 67.995075 57.720104 67.983813 58.182314 67.978516 58.640625 C 67.97064 59.313734 67.958229 59.989783 67.935547 60.669922 C 67.926552 60.944979 67.913842 61.221969 67.902344 61.498047 C 67.901963 61.507174 67.900774 61.516262 67.900391 61.525391 C 67.871069 62.21113 67.836816 62.898785 67.791016 63.589844 C 67.79002 63.604873 67.790067 63.619734 67.789062 63.634766 C 67.782259 63.738145 67.772809 63.841831 67.765625 63.945312 C 67.758446 64.048794 67.749752 64.15228 67.742188 64.255859 C 67.680657 65.086076 67.608924 65.918604 67.521484 66.753906 C 67.512714 66.838498 67.503189 66.923182 67.494141 67.007812 C 67.39666 67.911256 67.284564 68.816153 67.154297 69.722656 C 66.533337 74.059178 65.531772 78.410124 63.974609 82.619141 C 63.86696 82.910324 63.736993 83.205385 63.597656 83.523438 A 1.0001 1.0001 0 0 0 63.583984 83.5625 C 60.761166 90.018787 54.775286 93 48.466797 93 C 41.856056 93 35.013588 89.639819 31.503906 83.414062 C 30.897956 82.33918 30.371863 81.130936 29.908203 79.833984 C 29.819251 79.587119 29.734394 79.33561 29.650391 79.082031 C 29.572765 78.846055 29.497377 78.608659 29.423828 78.367188 C 29.359263 78.156516 29.29582 77.943116 29.234375 77.728516 C 29.143611 77.409775 29.05492 77.086597 28.970703 76.759766 C 28.93456 76.620072 28.898225 76.480916 28.863281 76.339844 C 28.757975 75.913229 28.657369 75.48119 28.5625 75.042969 C 28.548785 74.979721 28.534982 74.916986 28.521484 74.853516 C 28.465869 74.591637 28.415333 74.324064 28.363281 74.058594 C 28.202563 73.239001 28.055659 72.407882 27.927734 71.560547 C 27.760976 70.460292 27.619248 69.341103 27.501953 68.212891 C 27.454026 67.747454 27.424936 67.278191 27.384766 66.810547 C 27.332406 66.208078 27.274624 65.60717 27.234375 65.003906 C 27.17823 64.150478 27.139693 63.300524 27.105469 62.453125 C 27.096231 62.227574 27.08199 62.000098 27.074219 61.775391 C 27.04398 60.889654 27.027373 60.014722 27.017578 59.148438 C 27.015483 58.957679 27.01092 58.763711 27.009766 58.574219 C 27.00451 57.778276 27.010329 57.001181 27.019531 56.232422 C 27.022942 55.9581 27.02432 55.680294 27.029297 55.410156 C 27.042486 54.68312 27.061016 53.975074 27.083984 53.283203 C 27.092418 53.031732 27.101813 52.779398 27.111328 52.533203 C 27.131703 52.001804 27.155071 51.496543 27.179688 50.992188 C 27.229627 49.979067 27.291388 49.115271 27.351562 48.232422 C 27.403002 47.475625 27.451075 46.644258 27.503906 46.001953 C 27.564324 45.273796 27.617972 44.729191 27.671875 44.175781 C 27.713903 43.743595 27.763369 43.161562 27.796875 42.849609 C 27.799814 42.82225 27.797925 42.831071 27.800781 42.804688 C 27.870492 42.160737 27.919922 41.771484 27.919922 41.771484 A 1.0001 1.0001 0 0 0 27.925781 41.708984 C 28.319541 35.522728 30.279271 31.112182 33.085938 28.121094 C 33.486591 27.694191 33.902833 27.295915 34.335938 26.925781 C 37.370143 24.332733 41.197744 23.086954 45.183594 23.003906 z M 12.683594 27.046875 A 0.50005 0.50005 0 0 0 12.326172 27.857422 L 17.457031 34.556641 A 0.50005 0.50005 0 1 0 18.25 33.947266 L 13.119141 27.248047 A 0.50005 0.50005 0 0 0 12.734375 27.046875 A 0.50005 0.50005 0 0 0 12.683594 27.046875 z M 53.496094 28.998047 A 0.50005 0.50005 0 0 0 53.363281 29.019531 C 52.254665 29.336139 51.11644 29.577505 49.988281 29.757812 A 0.50005 0.50005 0 1 0 50.146484 30.744141 C 51.308326 30.558449 52.483335 30.309861 53.636719 29.980469 A 0.50005 0.50005 0 0 0 53.496094 28.998047 z M 38.462891 30 A 0.50005 0.50005 0 0 0 38.4375 30.996094 C 38.4375 30.996094 42.27142 31.4754 46.96875 31.115234 A 0.50005 0.50005 0 1 0 46.892578 30.119141 C 42.303905 30.470975 38.5625 30.003906 38.5625 30.003906 A 0.50005 0.50005 0 0 0 38.462891 30 z M 57.306641 34.890625 C 55.285339 34.916585 53.096215 35.154891 50.761719 35.400391 C 45.653286 35.936331 39.919142 36.533657 33.380859 35.529297 L 33.378906 35.529297 C 32.025945 35.315364 30.739802 36.258957 30.529297 37.619141 C 30.320213 38.978184 31.260188 40.261633 32.619141 40.470703 C 35.461437 40.908213 38.177577 41.068359 40.736328 41.068359 C 44.655144 41.068359 48.206506 40.69402 51.28125 40.373047 A 0.50005 0.50005 0 0 0 51.283203 40.373047 C 55.464132 39.933054 59.054573 39.601139 61.154297 40.355469 C 62.447623 40.818527 63.886119 40.138742 64.351562 38.845703 C 64.817155 37.552254 64.137678 36.113754 62.84375 35.648438 C 61.180928 35.050325 59.327942 34.864664 57.306641 34.890625 z M 57.3125 35.904297 C 59.264198 35.879757 61.007682 36.050955 62.505859 36.589844 C 63.291931 36.872527 63.692565 37.723261 63.410156 38.507812 C 63.1276 39.292775 62.276861 39.695005 61.492188 39.414062 C 58.98791 38.514395 55.358806 38.938903 51.177734 39.378906 C 48.102479 39.699933 44.591513 40.068359 40.736328 40.068359 C 38.219079 40.068359 35.555188 39.910912 32.771484 39.482422 C 31.946437 39.355492 31.390662 38.596441 31.517578 37.771484 C 31.645807 36.949322 32.414896 36.388862 33.224609 36.517578 A 0.50005 0.50005 0 0 0 33.226562 36.517578 C 39.91142 37.544773 45.756206 36.930534 50.865234 36.394531 A 0.50005 0.50005 0 0 0 50.867188 36.394531 C 53.20169 36.149031 55.360802 35.928836 57.3125 35.904297 z M 19.828125 36.373047 A 0.50005 0.50005 0 0 0 19.46875 37.181641 L 21.517578 39.857422 A 0.50080906 0.50080906 0 0 0 22.3125 39.248047 L 20.263672 36.574219 A 0.50005 0.50005 0 0 0 19.828125 36.373047 z M 34.234375 42.84375 A 0.50005 0.50005 0 0 0 33.962891 42.919922 C 31.670755 44.319903 30.118773 46.80976 30.015625 49.666016 A 0.50005 0.50005 0 0 0 30.044922 49.849609 C 29.971 50.683409 30.012673 51.552083 30.212891 52.441406 C 30.920664 55.582084 33.483858 58.061375 36.648438 58.658203 A 0.50005 0.50005 0 0 0 36.650391 58.658203 C 41.885393 59.644409 46.5 55.634965 46.5 50.560547 C 46.5 50.135001 46.449407 49.73149 46.384766 49.337891 A 0.50005 0.50005 0 0 0 46.445312 49.037109 C 46.17501 46.638432 44.878253 44.551698 43.003906 43.226562 A 0.50018719 0.50018719 0 0 0 42.425781 44.042969 C 43.882278 45.07269 44.840669 46.668198 45.228516 48.472656 C 43.05584 48.111783 40.877025 47.958458 38.693359 48.013672 A 1.5 1.5 0 0 0 38.5 48 A 1.5 1.5 0 0 0 38.273438 48.019531 C 38.249326 48.020433 38.225284 48.01858 38.201172 48.019531 C 35.876248 48.111282 33.546215 48.44951 31.212891 49.007812 C 31.516418 46.809183 32.672678 44.879978 34.484375 43.773438 A 0.50005 0.50005 0 0 0 34.234375 42.84375 z M 53.234375 42.84375 A 0.50005 0.50005 0 0 0 52.962891 42.919922 C 50.670755 44.319903 49.118773 46.80976 49.015625 49.666016 A 0.50005 0.50005 0 0 0 49.044922 49.849609 C 48.971 50.683409 49.012673 51.552083 49.212891 52.441406 C 49.920664 55.582084 52.483858 58.061375 55.648438 58.658203 A 0.50005 0.50005 0 0 0 55.650391 58.658203 C 60.885393 59.644409 65.5 55.634965 65.5 50.560547 C 65.5 50.135001 65.449407 49.73149 65.384766 49.337891 A 0.50005 0.50005 0 0 0 65.445312 49.037109 C 65.17501 46.638432 63.878253 44.551698 62.003906 43.226562 A 0.50018719 0.50018719 0 0 0 61.425781 44.042969 C 62.882278 45.07269 63.840669 46.668198 64.228516 48.472656 C 62.05584 48.111783 59.877025 47.958458 57.693359 48.013672 A 1.5 1.5 0 0 0 57.5 48 A 1.5 1.5 0 0 0 57.273438 48.019531 C 57.249326 48.020433 57.225284 48.01858 57.201172 48.019531 C 54.876248 48.111282 52.546215 48.44951 50.212891 49.007812 C 50.516418 46.809183 51.672678 44.879978 53.484375 43.773438 A 0.50005 0.50005 0 0 0 53.234375 42.84375 z M 40.03125 49.001953 C 41.820577 49.038307 43.605575 49.228893 45.388672 49.542969 C 45.442162 49.880691 45.5 50.218138 45.5 50.560547 C 45.5 55.032129 41.482935 58.551575 36.833984 57.675781 C 34.070563 57.15461 31.805727 54.964026 31.1875 52.220703 C 31.022779 51.489056 31.028824 50.788713 31.076172 50.099609 C 33.074539 49.59977 35.067292 49.257624 37.054688 49.099609 A 1.5 1.5 0 0 0 38.5 51 A 1.5 1.5 0 0 0 39.914062 49.003906 C 39.953095 49.004551 39.992222 49.00116 40.03125 49.001953 z M 59.03125 49.001953 C 60.820577 49.038307 62.605575 49.228893 64.388672 49.542969 C 64.442162 49.880691 64.5 50.218138 64.5 50.560547 C 64.5 55.032129 60.482935 58.551575 55.833984 57.675781 C 53.070563 57.15461 50.805727 54.964026 50.1875 52.220703 C 50.022779 51.489056 50.028824 50.788713 50.076172 50.099609 C 52.074539 49.59977 54.067292 49.257624 56.054688 49.099609 A 1.5 1.5 0 0 0 57.5 51 A 1.5 1.5 0 0 0 58.914062 49.003906 C 58.953095 49.004551 58.992222 49.00116 59.03125 49.001953 z M 44.492188 58.992188 A 0.50005 0.50005 0 0 0 44 59.5 L 44 65.5 C 44 66.833333 44.332109 67.881615 44.880859 68.613281 C 45.429609 69.344948 46.208333 69.75 47 69.75 C 47.791667 69.75 48.570391 69.344948 49.119141 68.613281 C 49.667891 67.881615 50 66.833333 50 65.5 L 50 59.5 A 0.50005 0.50005 0 1 0 49 59.5 L 49 65.5 C 49 66.666667 48.707109 67.493385 48.318359 68.011719 C 47.929609 68.530052 47.458333 68.75 47 68.75 C 46.541667 68.75 46.070391 68.530052 45.681641 68.011719 C 45.292891 67.493385 45 66.666667 45 65.5 L 45 59.5 A 0.50005 0.50005 0 0 0 44.492188 58.992188 z M 25.021484 59.492188 C 25.057795 62.478753 25.193389 65.588297 25.515625 68.671875 C 23.493386 68.03499 22 66.240463 22 64 C 22 61.945621 23.260649 60.261083 25.021484 59.492188 z M 69.976562 59.496094 C 71.737344 60.2647 73 61.945742 73 64 C 73 66.297551 71.433095 68.123399 69.330078 68.710938 C 69.331231 68.701827 69.330882 68.692704 69.332031 68.683594 C 69.575824 66.751873 69.746005 64.829992 69.853516 62.929688 C 69.854257 62.916575 69.854733 62.903735 69.855469 62.890625 C 69.865975 62.703892 69.86958 62.520276 69.878906 62.333984 C 69.917268 61.565698 69.951372 60.798766 69.970703 60.039062 C 69.972518 59.968146 69.970999 59.898959 69.972656 59.828125 C 69.975247 59.716686 69.974358 59.607323 69.976562 59.496094 z M 31.808594 59.697266 A 0.50005 0.50005 0 0 0 31.505859 60.574219 C 31.505859 60.574219 35.431443 64.066485 40.685547 61.964844 A 0.50050738 0.50050738 0 1 0 40.314453 61.035156 C 35.568557 62.933515 32.173828 59.830078 32.173828 59.830078 A 0.50005 0.50005 0 0 0 31.808594 59.697266 z M 62.515625 59.697266 A 0.50005 0.50005 0 0 0 62.166016 59.830078 C 62.166016 59.830078 58.771287 62.933515 54.025391 61.035156 A 0.50050738 0.50050738 0 1 0 53.654297 61.964844 C 58.908401 64.066485 62.833984 60.574219 62.833984 60.574219 A 0.50005 0.50005 0 0 0 62.515625 59.697266 z M 46.875 76.779297 C 40.11133 76.849797 35.292969 79.044922 35.292969 79.044922 A 0.50005 0.50005 0 1 0 35.707031 79.955078 C 35.707031 79.955078 46.51797 75.048137 58.308594 79.960938 A 0.50005 0.50005 0 1 0 58.691406 79.039062 C 55.639062 77.767252 52.650756 77.130447 49.884766 76.892578 C 48.847519 76.803377 47.841239 76.769225 46.875 76.779297 z"/></svg>