<svg fill="#000000" xmlns="http://www.w3.org/2000/svg"  viewBox="0 0 100 100" width="100px" height="100px"><path d="M 52.394531 9.8984375 C 51.582931 9.9046194 50.759247 9.9396432 49.923828 10.003906 C 43.566819 10.492907 37.710908 11.497418 32.746094 13.699219 C 27.78128 15.901019 23.711458 19.340755 21.105469 24.552734 C 18.978413 28.805903 11.891347 37.622395 14.023438 47.216797 C 14.582641 49.731938 15.406466 51.993306 16.451172 54.039062 C 13.801788 55.479157 12 58.281471 12 61.5 C 12 66.112629 15.706409 69.878684 20.292969 69.990234 C 25.548961 81.234374 36.620689 89 50 89 C 63.278426 89 74.309698 81.8364 79.609375 70.994141 C 84.241228 70.934606 88 67.145565 88 62.5 C 88 59.051633 85.934155 56.078239 82.970703 54.75 C 82.966563 54.630425 82.966229 54.50997 82.960938 54.390625 C 83.719587 52.837748 84.384971 51.147283 84.955078 49.294922 C 86.065335 45.686586 85.538195 40.599839 84.412109 35.763672 C 83.286024 30.927505 81.568769 26.428998 79.800781 24.015625 C 74.42281 16.674425 65.815465 10.663842 54.792969 9.9648438 C 54.005647 9.9149152 53.206131 9.8922556 52.394531 9.8984375 z M 52.410156 11.896484 C 53.176595 11.890763 53.931509 11.91247 54.673828 11.958984 C 65.0663 12.610193 73.100471 18.253216 78.1875 25.197266 C 79.594512 27.117893 81.379726 31.566917 82.462891 36.21875 C 83.546055 40.870583 83.934665 45.813414 83.044922 48.705078 C 82.8899 49.208764 82.689533 49.624567 82.507812 50.076172 C 80.378942 37.054501 71.398744 26.083882 59.164062 22.363281 C 59.088394 22.340113 59.013423 22.315576 58.9375 22.292969 C 58.566078 22.18311 58.191687 22.080741 57.814453 21.984375 C 57.666602 21.946369 57.517886 21.910887 57.369141 21.875 C 57.03889 21.795807 56.707499 21.719073 56.373047 21.650391 C 56.156242 21.605608 55.937323 21.565659 55.71875 21.525391 C 55.432068 21.472867 55.14504 21.421658 54.855469 21.376953 C 54.590002 21.335751 54.322589 21.302074 54.054688 21.267578 C 53.791426 21.233843 53.529156 21.19713 53.263672 21.169922 C 52.973404 21.140049 52.679655 21.121532 52.386719 21.099609 C 52.135496 21.080875 51.885884 21.055806 51.632812 21.042969 C 51.092733 21.015491 50.548448 21 50 21 C 49.433709 21 48.871896 21.015378 48.314453 21.042969 C 48.125523 21.052277 47.939865 21.071572 47.751953 21.083984 C 47.385445 21.10831 47.018629 21.129964 46.65625 21.166016 C 46.39381 21.19199 46.13528 21.229715 45.875 21.261719 C 45.606968 21.29486 45.337868 21.323783 45.072266 21.363281 C 44.746939 21.411373 44.425206 21.469908 44.103516 21.527344 C 43.90676 21.5627 43.708991 21.595932 43.513672 21.634766 C 43.151848 21.706222 42.794405 21.787954 42.4375 21.871094 C 42.294178 21.904718 42.150299 21.937156 42.007812 21.972656 C 41.601726 22.073099 41.2001 22.181534 40.800781 22.296875 C 40.725197 22.318876 40.649549 22.340748 40.574219 22.363281 C 27.933024 26.115182 18.799029 37.267136 17.244141 50.863281 C 16.744179 49.588743 16.302797 48.250515 15.976562 46.783203 C 14.108652 38.377605 20.503587 30.228097 22.894531 25.447266 C 25.288542 20.659245 28.920705 17.583293 33.556641 15.527344 C 38.192577 13.471394 43.836181 12.476093 50.076172 11.996094 C 50.865753 11.935357 51.643717 11.902206 52.410156 11.896484 z M 50 23 C 50.54884 23 51.092551 23.015695 51.632812 23.044922 C 51.635396 23.045062 51.638042 23.044781 51.640625 23.044922 C 51.699623 23.048129 51.757514 23.055043 51.816406 23.058594 C 52.282904 23.08672 52.747381 23.122484 53.207031 23.171875 C 53.414431 23.194155 53.618267 23.227371 53.824219 23.253906 C 54.137553 23.294288 54.451826 23.330763 54.761719 23.380859 C 54.960152 23.41293 55.15458 23.454235 55.351562 23.490234 C 55.677517 23.549806 56.004296 23.609514 56.326172 23.679688 C 56.492164 23.715884 56.655434 23.759851 56.820312 23.798828 C 57.15175 23.877165 57.483716 23.95551 57.810547 24.044922 C 58.018157 24.10173 58.222035 24.165357 58.427734 24.226562 C 58.709472 24.310374 58.99146 24.392437 59.269531 24.484375 C 59.494809 24.558878 59.716644 24.640949 59.939453 24.720703 C 60.192437 24.811238 60.44558 24.900848 60.695312 24.998047 C 60.932522 25.090389 61.166186 25.190804 61.400391 25.289062 C 61.62503 25.383293 61.850448 25.476585 62.072266 25.576172 C 62.328049 25.69103 62.580087 25.81173 62.832031 25.933594 C 63.03203 26.030308 63.232156 26.127461 63.429688 26.228516 C 63.666235 26.349567 63.899878 26.476338 64.132812 26.603516 C 64.350621 26.722402 64.568617 26.840696 64.783203 26.964844 C 64.996359 27.088196 65.206103 27.217246 65.416016 27.345703 C 65.628943 27.475975 65.841253 27.606757 66.050781 27.742188 C 66.2811 27.891092 66.508248 28.044194 66.734375 28.199219 C 66.90911 28.31898 67.083671 28.439151 67.255859 28.5625 C 67.499071 28.736779 67.73853 28.916351 67.976562 29.097656 C 68.139071 29.221401 68.300885 29.345701 68.460938 29.472656 C 68.681733 29.647846 68.899196 29.826623 69.115234 30.007812 C 69.289595 30.153999 69.463557 30.301157 69.634766 30.451172 C 69.838778 30.629995 70.040776 30.811941 70.240234 30.996094 C 70.403769 31.14703 70.566138 31.29868 70.726562 31.453125 C 70.937316 31.656091 71.144319 31.861418 71.349609 32.070312 C 71.494483 32.217672 71.637186 32.367331 71.779297 32.517578 C 71.975683 32.725296 72.170304 32.935318 72.361328 33.148438 C 72.507549 33.311506 72.651891 33.476418 72.794922 33.642578 C 72.98572 33.864315 73.174345 34.089291 73.359375 34.316406 C 73.48387 34.469166 73.60667 34.624159 73.728516 34.779297 C 73.924493 35.028919 74.117624 35.279528 74.306641 35.535156 C 74.405104 35.668258 74.501107 35.802807 74.597656 35.9375 C 74.800671 36.220849 75.000893 36.506667 75.195312 36.796875 C 75.276969 36.918715 75.355427 37.042997 75.435547 37.166016 C 75.630709 37.465794 75.823854 37.767624 76.009766 38.074219 C 76.083128 38.195161 76.15466 38.317478 76.226562 38.439453 C 76.413771 38.75715 76.598219 39.075885 76.775391 39.400391 C 76.837155 39.513472 76.896502 39.628302 76.957031 39.742188 C 77.137339 40.081576 77.315183 40.423215 77.484375 40.769531 C 77.531601 40.866161 77.574745 40.965347 77.621094 41.0625 C 77.796578 41.430477 77.970066 41.800529 78.132812 42.175781 C 78.159971 42.238379 78.184138 42.30244 78.210938 42.365234 C 78.386677 42.77716 78.558643 43.191231 78.71875 43.611328 C 78.720217 43.615177 78.721191 43.619198 78.722656 43.623047 C 78.731515 43.646311 78.739236 43.670071 78.748047 43.693359 C 78.919464 44.146569 79.081547 44.602382 79.234375 45.064453 C 80.198463 47.979346 80.789108 51.065382 80.951172 54.244141 A 1.0001 1.0001 0 0 0 80.953125 54.263672 C 80.972458 54.648596 80.979653 55.036303 80.986328 55.423828 A 1.0001 1.0001 0 0 0 80.986328 55.445312 C 80.989566 55.640199 81 55.833806 81 56.029297 C 81 56.029846 81 56.030702 81 56.03125 C 81 56.036496 81.000003 56.041629 81 56.046875 C 80.999737 56.632963 80.982401 57.213328 80.953125 57.789062 C 80.945522 57.940022 80.931424 58.088044 80.921875 58.238281 C 80.894263 58.668578 80.861891 59.097405 80.818359 59.521484 C 80.801638 59.685916 80.778829 59.848232 80.759766 60.011719 C 80.710484 60.430371 80.658327 60.847585 80.59375 61.259766 C 80.573547 61.389915 80.550995 61.518942 80.529297 61.648438 C 80.451816 62.10663 80.367564 62.562023 80.271484 63.011719 C 80.25445 63.092132 80.236368 63.171815 80.21875 63.251953 C 80.103113 63.773524 79.978033 64.291302 79.837891 64.800781 C 79.383 66.454507 78.800451 68.042322 78.101562 69.556641 A 1.0001 1.0001 0 0 0 78.041016 69.732422 C 73.173475 80.158194 62.734632 87 50 87 C 37.22146 87 26.727562 79.543009 21.886719 68.720703 A 1.0001 1.0001 0 0 0 21.835938 68.574219 C 21.155253 67.036069 20.586823 65.431322 20.142578 63.771484 C 20.138741 63.757149 20.134678 63.74286 20.130859 63.728516 C 19.994542 63.216439 19.874228 62.69803 19.761719 62.175781 C 19.747649 62.109955 19.732438 62.044498 19.71875 61.978516 C 19.62282 61.519755 19.538077 61.055886 19.460938 60.589844 C 19.440843 60.467342 19.419177 60.345641 19.400391 60.222656 C 19.332245 59.780638 19.277479 59.334754 19.226562 58.886719 C 19.211958 58.756936 19.19284 58.628311 19.179688 58.498047 C 19.136742 58.076893 19.107525 57.650634 19.080078 57.224609 C 19.0696 57.060201 19.053085 56.897516 19.044922 56.732422 C 19.016227 56.158542 19 55.581796 19 55 C 19 54.945604 19.003656 54.892221 19.003906 54.837891 A 1.0001 1.0001 0 0 0 19.003906 54.835938 C 19.006489 54.284508 19.022686 53.735759 19.050781 53.191406 C 19.078809 52.648358 19.118994 52.109573 19.171875 51.574219 C 19.173295 51.559847 19.174344 51.545616 19.175781 51.53125 C 19.227875 51.01057 19.290127 50.493241 19.365234 49.980469 C 19.369751 49.949634 19.376261 49.919477 19.380859 49.888672 C 19.45544 49.389089 19.540744 48.893808 19.636719 48.402344 C 19.839497 47.363961 20.089665 46.343986 20.384766 45.345703 C 20.532316 44.846562 20.691508 44.353368 20.861328 43.865234 C 21.031148 43.377101 21.210794 42.894439 21.402344 42.417969 C 21.593894 41.941498 21.797027 41.470012 22.009766 41.005859 C 22.216784 40.554189 22.433578 40.109316 22.660156 39.669922 C 22.744404 39.506603 22.834972 39.347113 22.921875 39.185547 C 23.077034 38.896989 23.231016 38.607046 23.394531 38.324219 C 23.46838 38.196484 23.549468 38.073805 23.625 37.947266 C 23.809085 37.638865 23.993556 37.330433 24.1875 37.029297 C 24.240238 36.947411 24.296152 36.868447 24.349609 36.787109 C 24.57709 36.44099 24.806545 36.097686 25.046875 35.761719 C 25.338436 35.354133 25.639237 34.952595 25.949219 34.560547 C 25.962979 34.543144 25.978392 34.527137 25.992188 34.509766 C 26.288286 34.136917 26.591975 33.770251 26.904297 33.412109 C 26.967992 33.33907 27.035251 33.269679 27.099609 33.197266 C 27.361579 32.902505 27.625647 32.610363 27.898438 32.326172 C 28.033155 32.185865 28.17324 32.051734 28.310547 31.914062 C 28.529074 31.69489 28.745719 31.474086 28.970703 31.261719 C 29.051188 31.185747 29.135497 31.114149 29.216797 31.039062 C 29.506487 30.771511 29.797788 30.506114 30.097656 30.25 C 30.471837 29.930418 30.85458 29.619565 31.244141 29.318359 C 31.431505 29.173491 31.625573 29.036994 31.816406 28.896484 C 32.023208 28.744252 32.226698 28.588436 32.4375 28.441406 C 32.716323 28.246934 33.00339 28.062142 33.289062 27.876953 C 33.423587 27.789747 33.555391 27.698395 33.691406 27.613281 C 34.002136 27.418837 34.320313 27.236075 34.638672 27.052734 C 34.75541 26.985506 34.868583 26.913368 34.986328 26.847656 C 35.158928 26.751331 35.336984 26.663346 35.511719 26.570312 C 35.7912 26.421489 36.068679 26.269171 36.353516 26.128906 C 36.794685 25.911656 37.241709 25.704033 37.695312 25.507812 C 37.69852 25.506425 37.70187 25.505293 37.705078 25.503906 C 38.004457 25.374544 38.310627 25.256704 38.615234 25.136719 C 38.787083 25.069027 38.955429 24.994352 39.128906 24.929688 C 39.312725 24.861164 39.501881 24.803369 39.6875 24.738281 C 39.990539 24.63202 40.291881 24.522754 40.599609 24.425781 C 41.082241 24.273692 41.57071 24.132635 42.064453 24.003906 C 42.069626 24.002558 42.074904 24.001346 42.080078 24 C 42.273954 23.949563 42.472437 23.91005 42.667969 23.863281 C 42.978524 23.789004 43.286934 23.711386 43.601562 23.646484 C 43.76073 23.613649 43.923798 23.589001 44.083984 23.558594 C 44.442468 23.490553 44.80061 23.420952 45.164062 23.365234 C 45.687104 23.285037 46.215164 23.218183 46.748047 23.164062 C 47.813919 23.055799 48.898035 23 50 23 z M 37.667969 32.316406 C 33.171248 32.323506 30.242187 34.070312 30.242188 34.070312 A 0.5010976 0.5010976 0 1 0 30.757812 34.929688 C 30.757812 34.929688 35.550748 32.034031 42.363281 33.980469 A 0.50005 0.50005 0 1 0 42.636719 33.019531 C 40.839852 32.506141 39.166876 32.314041 37.667969 32.316406 z M 61.707031 32.339844 C 61.364366 32.342188 61.031301 32.352856 60.710938 32.369141 C 58.148024 32.499418 56.363281 33.019531 56.363281 33.019531 A 0.50005 0.50005 0 1 0 56.636719 33.980469 C 56.636719 33.980469 63.495982 32.056585 69.277344 34.947266 A 0.50005 0.50005 0 1 0 69.722656 34.052734 C 67.002002 32.692412 64.105691 32.323438 61.707031 32.339844 z M 30.554688 38.525391 A 0.50005 0.50005 0 0 0 30.285156 38.601562 C 29.582194 39.031092 28.931124 39.5368 28.34375 40.107422 A 0.50069488 0.50069488 0 1 0 29.041016 40.826172 C 29.575642 40.306793 30.167603 39.845548 30.806641 39.455078 A 0.50005 0.50005 0 0 0 30.554688 38.525391 z M 42.005859 38.914062 A 0.50005 0.50005 0 0 0 41.757812 39.826172 C 43.819722 41.283162 45.19033 43.551178 45.689453 46.123047 C 42.462037 45.624702 39.226494 45.423148 35.982422 45.542969 C 32.709341 45.66386 29.429014 46.11148 26.142578 46.855469 C 26.299786 45.472791 26.680593 44.158939 27.34375 43.007812 A 0.50005 0.50005 0 1 0 26.478516 42.507812 C 25.610112 44.015211 25.086532 45.749906 25.019531 47.597656 A 0.50005 0.50005 0 0 0 25.023438 47.675781 C 25.01299 47.776642 25 47.861291 25 48 C 25 54.069219 29.930781 59 36 59 C 42.069219 59 47 54.069219 47 48 C 47 47.61877 46.962031 47.257908 46.921875 46.900391 A 0.50005 0.50005 0 0 0 46.925781 46.759766 C 46.56649 43.561755 44.835373 40.775921 42.335938 39.009766 A 0.50005 0.50005 0 0 0 42.056641 38.914062 A 0.50005 0.50005 0 0 0 42.005859 38.914062 z M 70.130859 39 A 0.50005 0.50005 0 0 0 69.871094 39.90625 C 71.833597 41.335409 73.144854 43.511318 73.662109 45.972656 C 72.183275 45.775336 70.702714 45.627818 69.220703 45.560547 C 64.213374 45.333253 59.187048 45.854354 54.146484 47.097656 C 54.223947 46.169404 54.345819 45.25224 54.666016 44.417969 A 0.500187 0.500187 0 1 0 53.732422 44.058594 C 53.275485 45.249144 53.019465 46.539752 53.005859 47.886719 A 0.50005 0.50005 0 0 0 53.005859 47.90625 C 53.002779 47.942691 53 47.945828 53 48 C 53 54.069219 57.930781 59 64 59 C 70.069219 59 75 54.069219 75 48 C 75 47.487675 74.96036 46.987153 74.892578 46.498047 A 0.50005 0.50005 0 0 0 74.865234 46.392578 C 74.425602 43.403476 72.794241 40.800218 70.458984 39.099609 A 0.50005 0.50005 0 0 0 70.130859 39 z M 57.539062 39.220703 A 0.50005 0.50005 0 0 0 57.230469 39.332031 C 56.386235 39.992964 55.641591 40.773652 55.021484 41.650391 A 0.50018719 0.50018719 0 1 0 55.837891 42.228516 C 56.401784 41.431255 57.077937 40.720208 57.845703 40.119141 A 0.50005 0.50005 0 0 0 57.539062 39.220703 z M 38.503906 46.513672 C 39.331599 46.525873 40.159773 46.559337 40.986328 46.613281 C 40.990902 46.613605 40.995426 46.614909 41 46.615234 C 41.255312 46.631968 41.510411 46.662946 41.765625 46.683594 C 43.159775 46.806531 44.552036 46.991528 45.943359 47.244141 C 45.96877 47.49635 46 47.748951 46 48 C 46 53.528781 41.528781 58 36 58 C 30.476482 58 26.008501 53.537129 26 48.015625 C 28.347377 47.416393 30.689349 46.997141 33.025391 46.753906 C 33.190655 46.737645 33.356271 46.711867 33.521484 46.697266 C 33.521484 46.697266 33.523438 46.697266 33.523438 46.697266 C 33.770348 46.675453 34.016877 46.668471 34.263672 46.650391 A 1.5 1.5 0 0 0 35.5 49 A 1.5 1.5 0 0 0 36.646484 46.533203 C 37.266011 46.518465 37.885092 46.50455 38.503906 46.513672 z M 67.205078 46.513672 C 67.861605 46.519915 68.518021 46.525807 69.173828 46.560547 C 69.173828 46.560547 69.175781 46.560547 69.175781 46.560547 C 70.763487 46.644721 72.349764 46.820698 73.933594 47.072266 C 73.965281 47.379355 74 47.686271 74 48 C 74 53.528781 69.528781 58 64 58 C 58.565915 58 54.190171 53.669109 54.041016 48.271484 C 56.33371 47.639589 58.620499 47.179406 60.902344 46.886719 C 61.690505 46.79131 62.47857 46.708843 63.265625 46.650391 A 1.5 1.5 0 0 0 64.5 49 A 1.5 1.5 0 0 0 65.644531 46.53125 C 66.164588 46.517455 66.685477 46.511019 67.205078 46.513672 z M 51.494141 55.994141 A 0.50005 0.50005 0 0 0 51.146484 56.853516 C 51.146484 56.853516 52.361872 58.076545 53.193359 59.501953 C 53.609103 60.214657 53.914341 60.973199 53.953125 61.59375 C 53.991905 62.214301 53.839315 62.672879 53.222656 63.083984 C 52.59533 63.502202 51.954861 63.553143 51.255859 63.388672 C 50.556858 63.2242 49.823907 62.821328 49.169922 62.345703 C 47.861952 61.394452 46.890625 60.1875 46.890625 60.1875 A 0.50024408 0.50024408 0 0 0 46.109375 60.8125 C 46.109375 60.8125 47.138048 62.105548 48.580078 63.154297 C 49.301093 63.678672 50.130642 64.150799 51.025391 64.361328 C 51.920139 64.571857 52.90467 64.497798 53.777344 63.916016 C 54.660685 63.327121 55.008091 62.410699 54.953125 61.53125 C 54.898155 60.651801 54.515897 59.785343 54.056641 58.998047 C 53.138128 57.423455 51.853516 56.146484 51.853516 56.146484 A 0.50005 0.50005 0 0 0 51.494141 55.994141 z M 17.025391 56.09375 C 17.147869 60.206679 17.957149 64.135979 19.349609 67.759766 C 16.323069 67.204489 14 64.69204 14 61.5 C 14 59.198344 15.228205 57.245055 17.025391 56.09375 z M 82.974609 57.095703 C 84.771439 58.246772 86 60.198835 86 62.5 C 86 65.713947 83.649297 68.248841 80.591797 68.779297 C 82.023423 65.194111 82.85278 61.263113 82.974609 57.095703 z M 51.28125 72.53125 C 45.68305 72.575081 41.34375 74.025391 41.34375 74.025391 A 0.50005 0.50005 0 1 0 41.65625 74.974609 C 41.65625 74.974609 51.49783 71.752845 60.328125 74.970703 A 0.50110112 0.50110112 0 1 0 60.671875 74.029297 C 58.358449 73.186254 55.993839 72.765951 53.748047 72.607422 C 52.905875 72.547973 52.080993 72.524988 51.28125 72.53125 z"/></svg>